<?xml version="1.0" encoding="utf-8"?>
<!-- Generator: Adobe Illustrator 27.5.0, SVG Export Plug-In . SVG Version: 6.00 Build 0)  -->
<svg version="1.1" xmlns="http://www.w3.org/2000/svg" xmlns:xlink="http://www.w3.org/1999/xlink" x="0px" y="0px"
	 viewBox="0 0 3710 3710" style="enable-background:new 0 0 3710 3710;" xml:space="preserve">
<!-- <g id="Background">
	<g>
		<g>
			<rect style="fill:#FFFFFF;" width="3710" height="3710"/>
		</g>
	</g>
</g> -->
<g id="Illustration">
	<g>
		<path style="fill:#F4F7FA;" d="M3244.185,1838.968c47.892,244.37,144.958,739.648-87.326,1070.975
			c-421.571,601.327-1855.293,558.952-2460.888-199.195c-52.357-65.546-315-407.45-286.344-875.628
			c49.707-812.07,946.917-1531.848,1665.966-1390.478c420.826,82.737,700.523,444.687,815.672,593.698
			C2938.72,1099.75,3156.051,1389.261,3244.185,1838.968z"/>
		<g>
			<linearGradient id="SVGID_1_" gradientUnits="userSpaceOnUse" x1="4293.3486" y1="1625.8964" x2="2659.7773" y2="1163.6299">
				<stop  offset="0" style="stop-color:#311944"/>
				<stop  offset="1" style="stop-color:#A03976"/>
			</linearGradient>
			<path style="fill:url(#SVGID_1_);" d="M3030.679,1508.187c52.316,26.561,118.042,2.173,146.803-54.474
				c28.761-56.647,9.665-124.102-42.65-150.663c-2.71-1.377-5.476-2.533-8.251-3.64c9.72-31.344,17.048-62.934,21.962-94.537
				c2.999-0.008,6.008-0.059,9.066-0.331c59.686-5.321,107.058-60.167,105.809-122.507c-1.25-62.34-50.649-108.564-110.336-103.244
				c-3.121,0.281-6.185,0.772-9.232,1.314c-6.234-30.893-14.777-61.072-25.554-90.279c2.746-1.607,5.477-3.267,8.146-5.136
				c51.064-35.775,67.392-106.387,36.465-157.713c-30.926-51.328-97.394-63.932-148.458-28.157
				c-2.617,1.834-5.079,3.814-7.511,5.824c-20.17-22.297-42.291-42.96-66.225-61.818c1.682-2.759,3.329-5.554,4.82-8.489
				c28.761-56.647,66.345-118.525,13.619-144.264c-121.97-59.542-174.309-8.572-203.071,48.075c-1.489,2.935-2.774,5.914-4.008,8.9
				c-29.348-8.194-59.083-13.86-88.986-16.987c0.188-3.149,0.332-6.304,0.27-9.5c-1.251-62.337,17.246-96.072-42.667-97.237
				c-130.649-2.541-174.73,54.168-173.479,116.504c0.065,3.258,0.337,6.444,0.66,9.608c-29.94,8.534-59.344,19.445-87.965,32.643
				c-1.36-2.781-2.771-5.544-4.387-8.229c-30.926-51.326-97.394-63.931-148.46-28.152c-51.066,35.778-67.392,106.387-36.466,157.713
				c1.584,2.631,3.32,5.089,5.082,7.515c-22.614,22.617-43.792,47.175-63.361,73.518c-2.531-1.588-5.098-3.139-7.809-4.514
				c-52.316-26.562-118.041-2.173-146.802,54.474c-28.761,56.646-9.666,124.101,42.65,150.663c2.711,1.377,5.478,2.532,8.252,3.639
				c-9.72,31.345-17.049,62.935-21.963,94.537c-2.999,0.009-6.008,0.059-9.064,0.329c-59.689,5.324-107.06,60.17-105.811,122.511
				c1.25,62.339,50.651,108.56,110.338,103.239c3.118-0.278,6.184-0.768,9.23-1.311c6.234,30.894,14.776,61.072,25.554,90.28
				c-2.745,1.606-5.477,3.266-8.146,5.135c-51.065,35.775-67.391,106.388-36.465,157.714
				c30.926,51.327,133.312,75.173,184.376,39.396c2.617-1.834-30.84-15.053-28.407-17.063
				c20.171,22.296,42.292,42.959,66.225,61.818c-1.681,2.759-3.33,5.554-4.82,8.488c-28.761,56.646-9.665,124.101,42.65,150.663
				c52.316,26.561,118.042,2.172,146.802-54.474c1.49-2.935,2.774-5.915,4.008-8.901c29.348,8.194,59.083,13.86,88.987,16.987
				c-0.187,3.149-0.332,6.304-0.269,9.5c1.25,62.338,50.65,108.56,110.337,103.24c59.687-5.321,107.061-60.17,105.809-122.507
				c-0.065-3.258-0.338-6.443-0.661-9.608c29.941-8.534,59.345-19.444,87.965-32.642c1.36,2.78,2.773,5.544,4.388,8.225
				c30.926,51.326,97.392,63.933,148.459,28.155c51.066-35.778,67.392-106.387,36.466-157.717c-1.584-2.627-3.32-5.085-5.083-7.511
				c22.613-22.616,43.792-47.175,63.362-73.518C3025.403,1505.26,3027.969,1506.811,3030.679,1508.187z M2378.515,1516.462
				c-189.947-96.44-259.276-341.35-154.85-547.023c104.425-205.675,343.059-294.225,533.005-197.785
				c189.947,96.44,259.275,341.35,154.851,547.023C2807.096,1524.352,2568.461,1612.902,2378.515,1516.462z"/>
			
				<linearGradient id="SVGID_00000176027515563510323230000001161660566221369526_" gradientUnits="userSpaceOnUse" x1="4289.0654" y1="1641.025" x2="2655.491" y2="1178.7576">
				<stop  offset="0" style="stop-color:#311944"/>
				<stop  offset="1" style="stop-color:#A03976"/>
			</linearGradient>
			<path style="fill:url(#SVGID_00000176027515563510323230000001161660566221369526_);" d="M3157.609,1204.542
				c59.686-5.323,107.058-60.17,105.809-122.509c-1.25-62.339-50.649-108.564-110.336-103.241c-3.12,0.278-6.185,0.772-9.232,1.313
				c-6.233-30.895-14.777-61.07-25.554-90.279c2.746-1.604,5.477-3.267,8.146-5.137c51.064-35.775,114.241-122.221,78.214-170.103
				c-68.379-90.878-139.143-51.541-190.207-15.766c-2.617,1.834-5.079,3.813-7.51,5.822c-20.171-22.297-42.292-42.958-66.226-61.817
				c1.682-2.76,3.329-5.552,4.82-8.486c15.654-30.831,17.035-64.822,6.697-93.719c-49.323,86.812-97.982,173.988-145.769,261.637
				c151.533,111.041,199.776,329.864,105.058,516.423c-80.265,158.09-239.817,246.858-395.607,235.735
				c-6.949,18.023-13.773,36.143-21.215,53.992c-20.195,48.438-43.136,95.878-66.108,143.256
				c14.448,2.723,28.957,4.867,43.508,6.391c-0.187,3.151-0.332,6.307-0.269,9.501c1.25,62.339,39.098,115.303,147.272,109.565
				c59.84-3.174,70.124-66.493,68.874-128.833c-0.065-3.257-0.336-6.443-0.659-9.607c29.94-8.534,59.344-19.446,87.963-32.643
				c1.36,2.781,2.773,5.544,4.389,8.225c30.926,51.329,138.211,73.137,189.277,37.359c51.066-35.778,26.573-115.589-4.353-166.917
				c-1.584-2.629-3.32-5.088-5.082-7.515c22.613-22.615,43.792-47.173,63.361-73.516c2.531,1.589,5.097,3.14,7.808,4.512
				c52.316,26.565,118.042,2.173,146.803-54.474c28.76-56.644,9.666-124.101-42.65-150.661c-2.711-1.376-5.477-2.533-8.251-3.639
				c9.72-31.344,17.048-62.937,21.962-94.535C3151.542,1204.865,3154.551,1204.814,3157.609,1204.542z"/>
			
				<linearGradient id="SVGID_00000151506774451939359810000006112207198270883983_" gradientUnits="userSpaceOnUse" x1="2616.9646" y1="593.5668" x2="2642.5103" y2="2656.4072">
				<stop  offset="0" style="stop-color:#FF9085"/>
				<stop  offset="1" style="stop-color:#FB6FBB"/>
			</linearGradient>
			<path style="fill:url(#SVGID_00000151506774451939359810000006112207198270883983_);" d="M3086.948,1514.586
				c52.315,26.561,118.041,2.172,146.802-54.475c28.761-56.647,9.667-124.101-42.65-150.663c-2.71-1.376-5.476-2.532-8.25-3.638
				c9.719-31.344,17.047-62.935,21.962-94.538c3-0.008,6.008-0.058,9.066-0.331c59.688-5.321,107.059-60.167,105.81-122.507
				c-1.249-62.34-50.649-108.564-110.336-103.243c-3.12,0.28-6.184,0.772-9.231,1.314c-6.234-30.893-14.777-61.071-25.554-90.279
				c2.746-1.607,5.478-3.267,8.147-5.136c51.064-35.775,67.392-106.388,36.466-157.715c-30.926-51.326-97.394-63.932-148.459-28.155
				c-2.618,1.834-5.079,3.813-7.512,5.822c-20.169-22.296-42.29-42.958-66.224-61.816c1.682-2.76,3.329-5.555,4.82-8.489
				c28.76-56.647,9.666-124.102-42.65-150.663c-52.316-26.562-118.042-2.173-146.802,54.474c-1.49,2.934-2.774,5.915-4.009,8.9
				c-29.348-8.194-59.083-13.86-88.985-16.987c0.186-3.15,0.331-6.304,0.269-9.5c-1.252-62.337-50.65-108.56-110.338-103.24
				c-59.687,5.32-107.059,60.17-105.809,122.506c0.066,3.26,0.338,6.444,0.661,9.608c-29.94,8.535-59.344,19.446-87.965,32.644
				c-1.36-2.781-2.771-5.544-4.386-8.229c-30.926-51.326-97.394-63.932-148.46-28.154c-51.067,35.78-67.391,106.388-36.465,157.715
				c1.584,2.629,3.32,5.089,5.082,7.514c-22.614,22.617-43.793,47.174-63.362,73.518c-2.531-1.587-5.096-3.139-7.808-4.514
				c-52.316-26.563-118.04-2.173-146.801,54.474c-28.762,56.647-9.666,124.101,42.649,150.663c2.71,1.376,5.477,2.532,8.252,3.64
				c-9.72,31.344-17.05,62.934-21.963,94.537c-2.999,0.009-6.009,0.059-9.065,0.329c-59.688,5.324-107.06,60.17-105.811,122.51
				c1.249,62.339,50.65,108.559,110.338,103.239c3.118-0.277,6.183-0.768,9.229-1.311c6.235,30.893,14.777,61.071,25.555,90.279
				c-2.745,1.606-5.478,3.266-8.146,5.137c-51.065,35.774-67.391,106.387-36.466,157.714
				c30.926,51.327,97.394,63.931,148.458,28.157c2.617-1.835,5.08-3.814,7.511-5.824c20.17,22.297,42.292,42.96,66.225,61.818
				c-1.681,2.759-3.33,5.554-4.82,8.488c-28.76,56.647-9.666,124.101,42.65,150.663c52.315,26.562,118.041,2.174,146.802-54.474
				c1.49-2.933,2.774-5.914,4.009-8.9c29.348,8.194,59.084,13.859,88.986,16.986c-0.186,3.15-0.332,6.305-0.269,9.501
				c1.251,62.336,50.649,108.561,110.337,103.24c59.687-5.321,107.06-60.17,105.809-122.507c-0.065-3.258-0.338-6.443-0.661-9.607
				c29.941-8.535,59.345-19.446,87.964-32.643c1.36,2.779,2.772,5.544,4.389,8.224c30.926,51.327,97.392,63.935,148.458,28.157
				c51.066-35.778,67.391-106.388,36.468-157.717c-1.586-2.627-3.321-5.086-5.084-7.512c22.614-22.615,43.792-47.173,63.363-73.517
				C3081.671,1511.657,3084.238,1513.209,3086.948,1514.586z M2434.784,1522.86c-189.946-96.44-259.276-341.349-154.85-547.024
				c104.425-205.673,343.058-294.223,533.005-197.783c189.947,96.44,259.276,341.35,154.851,547.023
				C2863.364,1530.751,2624.73,1619.299,2434.784,1522.86z"/>
		</g>
		<g>
			
				<linearGradient id="SVGID_00000100341002764867832420000012779439773360277389_" gradientUnits="userSpaceOnUse" x1="1650.6982" y1="2936.2725" x2="1450.606" y2="3020.3113">
				<stop  offset="0" style="stop-color:#40447E"/>
				<stop  offset="0.9964" style="stop-color:#3C3B6B"/>
			</linearGradient>
			<path style="fill:url(#SVGID_00000100341002764867832420000012779439773360277389_);" d="M3295.931,2826.781l-2848.376-24.807
				v73.401c0,19.922,12.424,36.863,29.249,39.882l805.436,144.54c9.559,1.715,19.252,2.17,28.897,1.356l1953.841-164.799
				c17.443-1.471,30.953-18.464,30.953-38.932V2826.781z"/>
			
				<linearGradient id="SVGID_00000043440684088032057220000002542000206739454593_" gradientUnits="userSpaceOnUse" x1="1383.5139" y1="2054.3987" x2="1166.3622" y2="2145.6023">
				<stop  offset="0" style="stop-color:#40447E"/>
				<stop  offset="0.9964" style="stop-color:#3C3B6B"/>
			</linearGradient>
			<path style="fill:url(#SVGID_00000043440684088032057220000002542000206739454593_);" d="M2379.002,2707.795L478.904,2842.073
				c-34.001,2.403-61.646-23.129-61.646-57.033V1426.695c0-33.905,27.645-61.39,61.646-61.39h1900.098
				c28.012,0,50.66,24.846,50.66,55.495v1227.919C2429.662,2679.368,2407.014,2705.815,2379.002,2707.795z"/>
			
				<linearGradient id="SVGID_00000032608549275870988470000001352540015346245778_" gradientUnits="userSpaceOnUse" x1="447.5546" y1="2103.7678" x2="2459.9595" y2="2103.7678">
				<stop  offset="0" style="stop-color:#40447E"/>
				<stop  offset="0.9964" style="stop-color:#3C3B6B"/>
			</linearGradient>
			<path style="fill:url(#SVGID_00000032608549275870988470000001352540015346245778_);" d="M2409.299,2707.795L509.201,2842.073
				c-34.002,2.403-61.647-23.129-61.647-57.033V1426.695c0-33.905,27.645-61.39,61.647-61.39h1900.098
				c28.012,0,50.66,24.846,50.66,55.495v1227.919C2459.959,2679.368,2437.312,2705.815,2409.299,2707.795z"/>
			
				<linearGradient id="SVGID_00000134927915942073081310000005573202929985958049_" gradientUnits="userSpaceOnUse" x1="2130.6406" y1="1101.736" x2="495.1616" y2="3387.2104">
				<stop  offset="0" style="stop-color:#FF9085"/>
				<stop  offset="1" style="stop-color:#FB6FBB"/>
			</linearGradient>
			<path style="fill:url(#SVGID_00000134927915942073081310000005573202929985958049_);" d="M2350.106,2621.225L580.363,2737.863
				c-27.669,1.823-50.155-19.133-50.155-46.811V1501.82c0-27.678,22.485-50.21,50.155-50.325l1769.743-7.324
				c23.108-0.096,41.799,20.264,41.799,45.474v1083.178C2391.905,2598.033,2373.214,2619.702,2350.106,2621.225z"/>
			<path style="fill:#FFFFFF;" d="M1526.356,1402.459c0,12.621-9.78,22.882-21.856,22.919
				c-12.092,0.037-21.905-10.188-21.905-22.838c0-12.65,9.813-22.911,21.905-22.92
				C1516.577,1379.612,1526.356,1389.837,1526.356,1402.459z"/>
			
				<linearGradient id="SVGID_00000159448027657276615680000017191152634754043316_" gradientUnits="userSpaceOnUse" x1="447.5546" y1="2847.9473" x2="3295.9309" y2="2847.9473">
				<stop  offset="0" style="stop-color:#40447E"/>
				<stop  offset="0.9964" style="stop-color:#3C3B6B"/>
			</linearGradient>
			<path style="fill:url(#SVGID_00000159448027657276615680000017191152634754043316_);" d="M2361.888,2701.706L447.555,2843.046
				l834.685,149.788c9.559,1.715,19.252,2.171,28.897,1.357l1984.794-167.41l-903.591-124.116
				C2382.234,2701.277,2372.042,2700.956,2361.888,2701.706z"/>
			
				<linearGradient id="SVGID_00000004511454041254234420000007957597616853663161_" gradientUnits="userSpaceOnUse" x1="726.8857" y1="2824.6091" x2="2813.8733" y2="2824.6091">
				<stop  offset="0" style="stop-color:#40447E"/>
				<stop  offset="0.9964" style="stop-color:#3C3B6B"/>
			</linearGradient>
			<polygon style="opacity:0.3;fill:url(#SVGID_00000004511454041254234420000007957597616853663161_);" points="726.886,2846.6 
				2320.625,2727.177 2813.873,2794.383 1233.863,2922.041 			"/>
			<path style="opacity:0.48;fill:#FFFFFF;" d="M1951.5,2335.248c-146.48-78.814-261.657,21.052-372.812-77.481
				c-67.389-59.738-34.304-104.284-117.224-193.555c-91.841-98.874-151.635-65.638-243.933-154.626
				c-116.706-112.519-58.336-200.062-158.863-280.847c-121.954-98.004-253.473-7.295-369.565-101.284
				c-50.071-40.538-77.544-99.473-91.89-162.15h-113.59c-19.905,0-36.069,16.132-36.069,36.034v1408.042
				c0,19.901,16.164,34.887,36.069,33.474l1936.511-137.458c9.503-0.674,17.93-6.223,23.338-14.267
				c-141.758-5.167-228.847-52.688-284.517-101.815C2050.051,2493.209,2068.941,2398.435,1951.5,2335.248z"/>
		</g>
		<g>
			
				<linearGradient id="SVGID_00000062879675545090884090000009804856046727772094_" gradientUnits="userSpaceOnUse" x1="957.4725" y1="989.7548" x2="1265.7524" y2="1561.5226">
				<stop  offset="0" style="stop-color:#AA80F9"/>
				<stop  offset="0.9964" style="stop-color:#6165D7"/>
			</linearGradient>
			
				<ellipse style="fill:url(#SVGID_00000062879675545090884090000009804856046727772094_);" cx="1040.853" cy="1144.401" rx="232.858" ry="185.367"/>
			<path style="fill:#FFFFFF;" d="M1040.853,1023.126c-45.999,0-83.288,37.289-83.288,83.288c0,29.809,34.976,99.152,59.597,144.274
				c10.235,18.756,37.147,18.756,47.382,0c24.621-45.122,59.598-114.465,59.598-144.274
				C1124.142,1060.415,1086.852,1023.126,1040.853,1023.126z M1040.853,1151.133c-24.697,0-44.719-20.021-44.719-44.719
				c0-24.697,20.021-44.719,44.719-44.719c24.697,0,44.719,20.021,44.719,44.719
				C1085.572,1131.112,1065.551,1151.133,1040.853,1151.133z"/>
			<g style="opacity:0.3;">
				
					<linearGradient id="SVGID_00000112601502799446985550000017160233969075392901_" gradientUnits="userSpaceOnUse" x1="868.3282" y1="1024.5004" x2="1170.6333" y2="1631.1542">
					<stop  offset="0" style="stop-color:#AA80F9"/>
					<stop  offset="0.9964" style="stop-color:#6165D7"/>
				</linearGradient>
				<path style="fill:url(#SVGID_00000112601502799446985550000017160233969075392901_);" d="M1097.39,1282.552
					c-28.091-54.741,0.308-105.914-37.673-141.292c-38.585-35.941-88.725-2.529-142.687-31.792
					c-20.863-11.314-44.058-32.961-61.299-77.524c-29.945,31.19-47.734,70.17-47.734,112.457
					c0,102.375,104.254,185.367,232.857,185.367c29.462,0,57.643-4.358,83.588-12.304
					C1111.647,1305.81,1103.179,1293.833,1097.39,1282.552z"/>
			</g>
		</g>
		<g>
			<defs>
				<polygon id="SVGID_00000122709764787300829950000000359559196735021969_" points="1856.594,2653.751 951.683,2713.046 
					522.995,2144.173 781.784,1471.253 3003.65,875.861 3203.749,1948.298 2847.03,2777.744 				"/>
			</defs>
			<clipPath id="SVGID_00000148626429660753867370000004389166572228090519_">
				<use xlink:href="#SVGID_00000122709764787300829950000000359559196735021969_"  style="overflow:visible;"/>
			</clipPath>
			<g style="clip-path:url(#SVGID_00000148626429660753867370000004389166572228090519_);">
				
					<linearGradient id="SVGID_00000164479636582407179830000007532000221591664516_" gradientUnits="userSpaceOnUse" x1="1192.5862" y1="2331.4851" x2="1850.7737" y2="2331.4851">
					<stop  offset="0" style="stop-color:#311944"/>
					<stop  offset="1" style="stop-color:#6B3976"/>
				</linearGradient>
				<path style="fill:url(#SVGID_00000164479636582407179830000007532000221591664516_);" d="M1671.859,2904.508
					c-57.958-3.907-112.691-42.566-136.239-102.103l-332.02-839.577c-30.229-76.449,3.873-162.972,76.551-193.654
					c73.19-30.893,187.284,5.495,218.293,82.752l340.616,848.684c32.111,80.017-4.101,167.514-80.474,195.043
					C1739.776,2902.432,1690.979,2905.796,1671.859,2904.508z"/>
				<path style="fill:#D8DEE8;" d="M1280.151,1769.175c73.19-30.894,187.284,5.494,218.293,82.752l311.44,775.987
					c-52.122-14.099-113.827-12.832-173.055-67.506c-98.601-91.019-50.093-207.662-128.245-311.561
					c-35.724-47.494-101.825-97.494-236.379-112.536l-68.605-173.482C1173.37,1886.379,1207.473,1799.856,1280.151,1769.175z"/>
				
					<linearGradient id="SVGID_00000125573643752479548810000012850881586279382159_" gradientUnits="userSpaceOnUse" x1="625.3032" y1="1752.9404" x2="812.9035" y2="1817.2604">
					<stop  offset="0" style="stop-color:#311944"/>
					<stop  offset="1" style="stop-color:#6B3976"/>
				</linearGradient>
				<path style="fill:url(#SVGID_00000125573643752479548810000012850881586279382159_);" d="M844.095,1584.105
					c2.855,0,5.684,0.228,8.492,0.634l205.241-2.372v561.806l-198.187-2.858c-5.096,1.361-10.283,2.077-15.547,2.077
					c-70.342,0-127.365-125.201-127.365-279.643C716.729,1709.307,773.753,1584.105,844.095,1584.105z"/>
				
					<linearGradient id="SVGID_00000070837639851826712730000017699274628800586908_" gradientUnits="userSpaceOnUse" x1="-1045.0461" y1="1006.7191" x2="-608.9669" y2="3418.7737" gradientTransform="matrix(1 0 0 1 2755.0474 0)">
					<stop  offset="0" style="stop-color:#AA80F9"/>
					<stop  offset="0.9964" style="stop-color:#6165D7"/>
				</linearGradient>
				<path style="fill:url(#SVGID_00000070837639851826712730000017699274628800586908_);" d="M1057.828,1582.367
					c-77.742,187.074-77.742,373.481,0,561.806l1526.704,516.749l15.766-1576.815L1057.828,1582.367z"/>
				
					<linearGradient id="SVGID_00000022529656196298803220000006688410016290780572_" gradientUnits="userSpaceOnUse" x1="-1187.4296" y1="1033.3242" x2="-751.5582" y2="3444.2292" gradientTransform="matrix(1 0 0 1 2755.0474 0)">
					<stop  offset="0" style="stop-color:#AA80F9"/>
					<stop  offset="0.9964" style="stop-color:#6165D7"/>
				</linearGradient>
				<path style="opacity:0.3;fill:url(#SVGID_00000022529656196298803220000006688410016290780572_);" d="M2172.399,2197.431
					c-145.158-57.896-190.262-279.598-358.791-287.059c-132.237-5.854-172.074,129.315-301.641,114.736
					c-132.632-14.924-154.904-165.465-303.437-218.527c-67.533-24.125-138.183-19.667-206.755,0.729
					c-9.211,111.722,9.389,223.823,56.054,336.863l1526.704,516.749l-90.317-535.379
					C2343.683,2217.986,2242.771,2225.498,2172.399,2197.431z"/>
				
					<linearGradient id="SVGID_00000106843921496666703080000009781819810527496843_" gradientUnits="userSpaceOnUse" x1="-127.9802" y1="1357.6698" x2="-990.5256" y2="2374.9104" gradientTransform="matrix(-1 0 0 1 2099.304 0)">
					<stop  offset="0.0036" style="stop-color:#E38DDD"/>
					<stop  offset="1" style="stop-color:#9571F6"/>
				</linearGradient>
				
					<ellipse style="fill:url(#SVGID_00000106843921496666703080000009781819810527496843_);" cx="2658.557" cy="1866.29" rx="371.371" ry="815.379"/>
				
					<linearGradient id="SVGID_00000000218433983439977200000017043770200504855203_" gradientUnits="userSpaceOnUse" x1="2345.3171" y1="1866.2904" x2="3003.6504" y2="1866.2904">
					<stop  offset="0" style="stop-color:#D8DEE8"/>
					<stop  offset="1" style="stop-color:#FFFFFF"/>
				</linearGradient>
				<path style="fill:url(#SVGID_00000000218433983439977200000017043770200504855203_);" d="M2658.558,2654.005
					c43.543,0,86.33-19.23,127.17-57.159c41.565-38.601,79.159-94.435,111.733-165.956
					c68.477-150.348,106.189-350.859,106.189-564.6c0-213.738-37.712-414.251-106.189-564.598
					c-32.574-71.52-70.167-127.355-111.733-165.957c-40.841-37.927-83.627-57.158-127.17-57.158
					c-43.543,0-86.331,19.231-127.171,57.158c-41.565,38.602-79.159,94.437-111.734,165.957
					c-28.632,62.864-51.886,134.498-69.252,212.203c-24.168,108.135,45.686,221.02,45.686,345.39
					c0,132.247-68.186,266.436-40.956,379.806c16.778,69.861,38.415,134.477,64.522,191.8
					c32.575,71.521,70.168,127.356,111.734,165.956C2572.227,2634.775,2615.014,2654.005,2658.558,2654.005z"/>
				<g>
					<defs>
						<path id="SVGID_00000159464155907430186620000009336736296283497363_" d="M2658.558,2654.005
							c43.543,0,86.33-19.23,127.17-57.159c41.565-38.601,79.159-94.435,111.733-165.956
							c68.477-150.348,106.189-350.859,106.189-564.6c0-213.738-37.712-414.251-106.189-564.598
							c-32.574-71.52-70.167-127.355-111.733-165.957c-40.841-37.927-83.627-57.158-127.17-57.158
							c-43.543,0-86.331,19.231-127.171,57.158c-41.565,38.602-79.159,94.437-111.734,165.957
							c-68.477,150.347-106.189,350.86-106.189,564.598c0,213.741,37.712,414.252,106.189,564.6
							c32.575,71.521,70.168,127.356,111.734,165.956C2572.227,2634.775,2615.014,2654.005,2658.558,2654.005z"/>
					</defs>
					<clipPath id="SVGID_00000101070663235365583360000011394031263453302167_">
						<use xlink:href="#SVGID_00000159464155907430186620000009336736296283497363_"  style="overflow:visible;"/>
					</clipPath>
					
						<linearGradient id="SVGID_00000156557253058969059140000000815785837093486486_" gradientUnits="userSpaceOnUse" x1="-491.4992" y1="1091.1277" x2="-207.1099" y2="2664.1501" gradientTransform="matrix(1 0 0 1 2755.0474 0)">
						<stop  offset="0" style="stop-color:#FFC444"/>
						<stop  offset="0.9964" style="stop-color:#F36F56"/>
					</linearGradient>
					
						<path style="clip-path:url(#SVGID_00000101070663235365583360000011394031263453302167_);fill:url(#SVGID_00000156557253058969059140000000815785837093486486_);" d="
						M2689.121,1876.988c0,206.579-129.934,370.605-287.954,366.422c-155.576-4.119-279.94-170.217-279.94-371.046
						c0.001-200.831,124.365-364.902,279.94-366.488C2559.187,1504.266,2689.121,1670.408,2689.121,1876.988z"/>
					
						<linearGradient id="SVGID_00000098929968194029616690000014931846039733891457_" gradientUnits="userSpaceOnUse" x1="-333.7997" y1="1293.4226" x2="-123.8387" y2="2454.7654" gradientTransform="matrix(1 0 0 1 2755.0474 0)">
						<stop  offset="0" style="stop-color:#FFC444"/>
						<stop  offset="0.9964" style="stop-color:#F36F56"/>
					</linearGradient>
					
						<path style="opacity:0.3;clip-path:url(#SVGID_00000101070663235365583360000011394031263453302167_);fill:url(#SVGID_00000098929968194029616690000014931846039733891457_);" d="
						M2664.156,1873.626c0,153.4-63.31,275.201-140.304,272.095c-75.803-3.059-136.399-126.398-136.399-275.529
						s60.596-270.966,136.399-272.143C2600.846,1596.853,2664.156,1720.227,2664.156,1873.626z"/>
				</g>
			</g>
		</g>
		<g>
			
				<linearGradient id="SVGID_00000144317447804582825020000012152207078615864753_" gradientUnits="userSpaceOnUse" x1="2318.1284" y1="1036.082" x2="1596.8229" y2="831.9677">
				<stop  offset="0" style="stop-color:#311944"/>
				<stop  offset="1" style="stop-color:#A03976"/>
			</linearGradient>
			<path style="fill:url(#SVGID_00000144317447804582825020000012152207078615864753_);" d="M1760.595,984.107
				c23.1,11.728,52.121,0.96,64.821-24.053c12.7-25.013,4.268-54.797-18.832-66.525c-1.197-0.608-2.418-1.119-3.643-1.607
				c4.292-13.84,7.528-27.789,9.698-41.743c1.324-0.004,2.653-0.026,4.003-0.146c26.355-2.35,47.272-26.567,46.72-54.093
				c-0.552-27.526-22.364-47.937-48.719-45.588c-1.378,0.124-2.731,0.341-4.076,0.58c-2.753-13.641-6.525-26.966-11.283-39.863
				c1.212-0.71,2.418-1.443,3.597-2.268c22.547-15.796,29.757-46.975,16.101-69.639c-13.656-22.664-43.005-28.229-65.552-12.433
				c-1.156,0.81-2.243,1.684-3.317,2.572c-8.906-9.845-18.673-18.969-29.242-27.296c0.743-1.219,1.47-2.452,2.128-3.748
				c12.699-25.013,29.294-52.335,6.013-63.7c-53.855-26.291-76.966-3.785-89.666,21.227c-0.657,1.296-1.225,2.612-1.77,3.93
				c-12.959-3.618-26.088-6.12-39.292-7.5c0.083-1.391,0.146-2.783,0.119-4.195c-0.552-27.525,7.615-42.421-18.84-42.935
				c-57.688-1.122-77.152,23.918-76.6,51.442c0.029,1.439,0.149,2.846,0.292,4.243c-13.22,3.768-26.203,8.586-38.841,14.413
				c-0.6-1.228-1.224-2.448-1.937-3.633c-13.656-22.663-43.005-28.229-65.553-12.431c-22.549,15.798-29.757,46.975-16.102,69.639
				c0.699,1.162,1.466,2.247,2.244,3.318c-9.986,9.987-19.337,20.83-27.978,32.462c-1.118-0.701-2.251-1.386-3.448-1.993
				c-23.1-11.728-52.122-0.96-64.821,24.053c-12.7,25.012-4.268,54.797,18.832,66.525c1.197,0.608,2.418,1.118,3.643,1.607
				c-4.292,13.84-7.528,27.789-9.698,41.743c-1.324,0.004-2.653,0.026-4.002,0.145c-26.356,2.351-47.273,26.568-46.721,54.095
				c0.552,27.526,22.365,47.935,48.72,45.586c1.377-0.123,2.73-0.339,4.075-0.579c2.753,13.641,6.525,26.966,11.283,39.863
				c-1.212,0.709-2.419,1.442-3.596,2.267c-22.548,15.797-29.757,46.976-16.102,69.639c13.656,22.663,58.864,33.193,81.412,17.396
				c1.155-0.81-13.618-6.647-12.543-7.534c8.906,9.845,18.674,18.969,29.242,27.296c-0.742,1.218-1.47,2.453-2.128,3.748
				c-12.699,25.012-4.268,54.797,18.832,66.525c23.1,11.728,52.122,0.959,64.821-24.053c0.658-1.296,1.225-2.612,1.77-3.93
				c12.959,3.619,26.088,6.12,39.292,7.501c-0.082,1.391-0.146,2.784-0.119,4.195c0.552,27.525,22.365,47.935,48.719,45.586
				c26.355-2.349,47.273-26.568,46.72-54.093c-0.029-1.439-0.149-2.845-0.292-4.242c13.22-3.768,26.203-8.586,38.841-14.413
				c0.601,1.228,1.225,2.448,1.938,3.632c13.655,22.663,43.004,28.23,65.552,12.432c22.548-15.798,29.757-46.975,16.102-69.64
				c-0.699-1.16-1.466-2.245-2.244-3.317c9.985-9.986,19.337-20.83,27.977-32.462C1758.266,982.815,1759.398,983.5,1760.595,984.107
				z M1472.631,987.761c-83.871-42.583-114.484-150.724-68.374-241.539c46.108-90.816,151.478-129.915,235.349-87.332
				c83.871,42.583,114.484,150.724,68.375,241.539C1661.872,991.245,1556.502,1030.344,1472.631,987.761z"/>
			
				<linearGradient id="SVGID_00000052782871666348809760000015925687499363510698_" gradientUnits="userSpaceOnUse" x1="2316.2373" y1="1042.7623" x2="1594.9302" y2="838.6474">
				<stop  offset="0" style="stop-color:#311944"/>
				<stop  offset="1" style="stop-color:#A03976"/>
			</linearGradient>
			<path style="fill:url(#SVGID_00000052782871666348809760000015925687499363510698_);" d="M1816.641,850.033
				c26.355-2.35,47.272-26.568,46.72-54.094c-0.552-27.525-22.364-47.936-48.719-45.586c-1.378,0.122-2.731,0.341-4.076,0.58
				c-2.752-13.642-6.525-26.966-11.283-39.863c1.212-0.709,2.418-1.443,3.597-2.269c22.547-15.796,50.443-53.967,34.536-75.109
				c-30.193-40.127-61.439-22.758-83.986-6.962c-1.156,0.81-2.243,1.684-3.316,2.57c-8.907-9.845-18.674-18.968-29.242-27.295
				c0.743-1.218,1.47-2.451,2.128-3.747c6.911-13.613,7.522-28.622,2.957-41.382c-21.779,38.332-43.264,76.825-64.364,115.526
				c66.91,49.031,88.211,145.652,46.389,228.027c-35.441,69.805-105.892,109.001-174.681,104.089
				c-3.069,7.958-6.082,15.959-9.368,23.84c-8.917,21.388-19.047,42.335-29.19,63.255c6.38,1.203,12.786,2.149,19.211,2.822
				c-0.082,1.392-0.146,2.785-0.119,4.195c0.552,27.525,17.264,50.912,65.028,48.379c26.423-1.402,30.964-29.361,30.411-56.886
				c-0.029-1.438-0.149-2.845-0.291-4.242c13.22-3.768,26.203-8.586,38.84-14.414c0.601,1.228,1.225,2.448,1.938,3.632
				c13.656,22.665,61.027,32.294,83.575,16.496c22.549-15.798,11.733-51.038-1.922-73.702c-0.699-1.161-1.466-2.247-2.244-3.318
				c9.985-9.986,19.336-20.83,27.977-32.461c1.118,0.702,2.251,1.387,3.447,1.992c23.1,11.73,52.121,0.959,64.821-24.053
				c12.699-25.011,4.268-54.797-18.832-66.525c-1.197-0.608-2.418-1.119-3.644-1.607c4.292-13.84,7.528-27.789,9.698-41.742
				C1813.963,850.175,1815.291,850.152,1816.641,850.033z"/>
			
				<linearGradient id="SVGID_00000047774399126046808720000001859896732901597609_" gradientUnits="userSpaceOnUse" x1="1577.9191" y1="580.2556" x2="1589.1989" y2="1491.1053">
				<stop  offset="0" style="stop-color:#FF9085"/>
				<stop  offset="1" style="stop-color:#FB6FBB"/>
			</linearGradient>
			<path style="fill:url(#SVGID_00000047774399126046808720000001859896732901597609_);" d="M1785.441,986.933
				c23.1,11.728,52.121,0.959,64.821-24.054c12.7-25.013,4.269-54.797-18.832-66.525c-1.197-0.607-2.418-1.118-3.643-1.606
				c4.292-13.84,7.528-27.789,9.698-41.743c1.324-0.004,2.653-0.026,4.003-0.147c26.355-2.349,47.272-26.567,46.72-54.093
				c-0.552-27.527-22.364-47.937-48.719-45.587c-1.378,0.124-2.73,0.341-4.076,0.58c-2.753-13.641-6.525-26.966-11.283-39.863
				c1.212-0.709,2.419-1.442,3.597-2.268c22.547-15.797,29.757-46.976,16.101-69.639c-13.656-22.663-43.004-28.229-65.552-12.432
				c-1.156,0.81-2.243,1.684-3.317,2.571c-8.906-9.845-18.673-18.968-29.242-27.295c0.743-1.218,1.47-2.453,2.128-3.748
				c12.699-25.013,4.268-54.797-18.832-66.525c-23.1-11.729-52.121-0.959-64.82,24.053c-0.658,1.295-1.225,2.612-1.77,3.93
				c-12.959-3.618-26.088-6.12-39.291-7.5c0.082-1.391,0.146-2.784,0.119-4.195c-0.553-27.525-22.365-47.935-48.72-45.586
				c-26.355,2.349-47.272,26.568-46.72,54.093c0.029,1.439,0.149,2.845,0.292,4.242c-13.22,3.769-26.203,8.586-38.841,14.414
				c-0.6-1.227-1.224-2.448-1.937-3.633c-13.656-22.663-43.004-28.229-65.553-12.432c-22.549,15.798-29.757,46.976-16.101,69.639
				c0.699,1.161,1.466,2.247,2.244,3.318c-9.985,9.987-19.337,20.83-27.978,32.462c-1.117-0.701-2.25-1.386-3.447-1.993
				c-23.1-11.729-52.121-0.959-64.821,24.053c-12.7,25.013-4.268,54.797,18.832,66.525c1.197,0.607,2.419,1.118,3.644,1.607
				c-4.292,13.84-7.528,27.789-9.698,41.743c-1.324,0.004-2.653,0.026-4.002,0.145c-26.355,2.351-47.273,26.568-46.721,54.095
				c0.551,27.526,22.365,47.934,48.719,45.586c1.377-0.123,2.73-0.339,4.075-0.579c2.753,13.641,6.525,26.966,11.284,39.863
				c-1.212,0.709-2.419,1.442-3.597,2.268c-22.548,15.796-29.757,46.975-16.102,69.639c13.655,22.663,43.005,28.229,65.552,12.433
				c1.156-0.81,2.243-1.684,3.317-2.572c8.906,9.845,18.674,18.969,29.241,27.296c-0.742,1.218-1.47,2.452-2.128,3.748
				c-12.699,25.013-4.268,54.797,18.832,66.525c23.1,11.728,52.121,0.96,64.82-24.053c0.658-1.295,1.225-2.611,1.77-3.929
				c12.959,3.618,26.089,6.119,39.292,7.5c-0.082,1.391-0.147,2.784-0.119,4.195c0.552,27.525,22.365,47.935,48.72,45.586
				c26.354-2.349,47.272-26.568,46.72-54.093c-0.028-1.438-0.149-2.845-0.292-4.242c13.221-3.768,26.204-8.586,38.841-14.413
				c0.601,1.227,1.224,2.448,1.938,3.631c13.655,22.664,43.003,28.23,65.552,12.433c22.549-15.798,29.757-46.975,16.102-69.64
				c-0.7-1.16-1.466-2.246-2.245-3.317c9.985-9.985,19.337-20.829,27.978-32.462C1783.11,985.64,1784.244,986.325,1785.441,986.933z
				 M1497.477,990.586c-83.871-42.583-114.484-150.723-68.374-241.539c46.109-90.815,151.478-129.914,235.349-87.331
				c83.871,42.583,114.484,150.724,68.375,241.539C1686.717,994.07,1581.348,1033.169,1497.477,990.586z"/>
		</g>
		<g>
			
				<linearGradient id="SVGID_00000035529407140249952920000003931736231979247244_" gradientUnits="userSpaceOnUse" x1="3562.144" y1="3039.3718" x2="3495.498" y2="2819.6199" gradientTransform="matrix(0.993 0.1177 -0.1177 0.993 -2178.0205 -89.6996)">
				<stop  offset="0" style="stop-color:#444B8C"/>
				<stop  offset="0.9964" style="stop-color:#26264F"/>
			</linearGradient>
			<path style="fill:url(#SVGID_00000035529407140249952920000003931736231979247244_);" d="M949.495,3234.26
				c-8.23,13.128-6.948,19.274-5.532,22.066c4.148,8.192,16.824,2.191,47.554,9.128c3.604,0.815,10.47,2.483,19.376,1.345
				c7.63-0.977,16.821-4.023,16.655-6.056c-0.061-0.74-1.354-1.169-1.844-1.328c-8.442-2.744-60.761-24.982-60.761-24.982
				L949.495,3234.26z"/>
			
				<linearGradient id="SVGID_00000121272735620251375290000011701288632731576720_" gradientUnits="userSpaceOnUse" x1="3504.6899" y1="2996.5818" x2="3504.6899" y2="2643.5332" gradientTransform="matrix(0.993 0.1177 -0.1177 0.993 -2178.0205 -89.6996)">
				<stop  offset="0" style="stop-color:#FFC444"/>
				<stop  offset="0.9964" style="stop-color:#F36F56"/>
			</linearGradient>
			<path style="fill:url(#SVGID_00000121272735620251375290000011701288632731576720_);" d="M948.526,3203.409l1.593,31.437
				c0,0,12.304,10.781,16.987-0.256c3.37-7.938,5.61-30.05,5.61-30.05L948.526,3203.409z"/>
			
				<linearGradient id="SVGID_00000090972751318860941760000000812004580182990480_" gradientUnits="userSpaceOnUse" x1="3634.6821" y1="2996.5811" x2="3634.6821" y2="2643.5281" gradientTransform="matrix(0.993 0.1177 -0.1177 0.993 -2178.0205 -89.6996)">
				<stop  offset="0" style="stop-color:#FFC444"/>
				<stop  offset="0.9964" style="stop-color:#F36F56"/>
			</linearGradient>
			<polygon style="fill:url(#SVGID_00000090972751318860941760000000812004580182990480_);" points="1103.805,3235.121 
				1087.04,3269.372 1068.4,3264.372 1076.242,3231.854 			"/>
			
				<linearGradient id="SVGID_00000007391630801063521380000013232898454130648250_" gradientUnits="userSpaceOnUse" x1="3659.2305" y1="3009.9277" x2="3592.5842" y2="2790.1748" gradientTransform="matrix(0.993 0.1177 -0.1177 0.993 -2178.0205 -89.6996)">
				<stop  offset="0" style="stop-color:#444B8C"/>
				<stop  offset="0.9964" style="stop-color:#26264F"/>
			</linearGradient>
			<path style="fill:url(#SVGID_00000007391630801063521380000013232898454130648250_);" d="M1079.087,3288.371
				c-8.038-11.846-16.332-11.715-17.203-19.369c-0.685-6.014,3.669-12.847,9.387-15.019c8.036-3.049,16.654,3.927,18.601,5.501
				c13.226,10.709,7.853,24.731,20.579,32.384c2.562,1.541,6.689,3.323,10.747,8.007c1.723,1.99,5.991,6.918,4.563,9.855
				c-1.651,3.398-10.073,2.394-18.083,1.439c-9.61-1.145-14.414-1.714-18.741-5.088
				C1082.94,3301.409,1085.29,3297.513,1079.087,3288.371z"/>
			
				<linearGradient id="SVGID_00000127040999858101629460000018344005296476575114_" gradientUnits="userSpaceOnUse" x1="3474.1636" y1="2234.7732" x2="3441.7407" y2="2964.2852" gradientTransform="matrix(0.993 0.1177 -0.1177 0.993 -2178.0205 -89.6996)">
				<stop  offset="0" style="stop-color:#311944"/>
				<stop  offset="1" style="stop-color:#893976"/>
			</linearGradient>
			<path style="fill:url(#SVGID_00000127040999858101629460000018344005296476575114_);" d="M924.44,2452.941
				c-4.014,72.312-0.132,134.807,6.352,186.099c6.977,55.177,12.882,65.102,13.352,102.895
				c1.021,82.242-26.244,91.742-38.717,183.57c-13.774,101.396,6.597,184.581,14.682,216.339
				c7.069,27.763,15.005,50.367,21.077,66.114c8.662,8.915,23.197,6.972,38.503,5.159c13.203-91.911,27.32-178.267,40.523-270.177
				c29.401-137.476,58.801-274.947,88.202-412.421C1047.089,2504.659,985.765,2478.803,924.44,2452.941z"/>
			
				<linearGradient id="SVGID_00000010278089278227221690000001635404780544850336_" gradientUnits="userSpaceOnUse" x1="3474.1636" y1="2234.7732" x2="3441.7407" y2="2964.2852" gradientTransform="matrix(0.993 0.1177 -0.1177 0.993 -2178.0205 -89.6996)">
				<stop  offset="0" style="stop-color:#311944"/>
				<stop  offset="1" style="stop-color:#893976"/>
			</linearGradient>
			<path style="opacity:0.3;fill:url(#SVGID_00000010278089278227221690000001635404780544850336_);" d="M979.689,3213.118
				c13.203-91.911,27.32-178.267,40.523-270.177c29.401-137.476,58.801-274.947,88.202-412.421
				c-61.325-25.861-122.649-51.717-183.974-77.579c-0.265,4.789-0.407,9.415-0.607,14.121
				c82.071,84.132,94.338,146.408,90.034,187.834c-5.219,50.245-34.811,72.914-35.482,146.335
				c-0.481,52.497,14.444,62.991,10.534,110.075c-5.036,60.629-33.883,92.563-49.46,126.548
				c-15.056,32.847-23.391,80.448-5.383,150.627c2.524,7.302,4.938,13.848,7.11,19.477
				C949.848,3216.872,964.383,3214.933,979.689,3213.118z"/>
			
				<linearGradient id="SVGID_00000134233439504722911260000006430823217348194441_" gradientUnits="userSpaceOnUse" x1="3968.4341" y1="2545.1162" x2="3374.009" y2="2518.0964" gradientTransform="matrix(0.993 0.1177 -0.1177 0.993 -2178.0205 -89.6996)">
				<stop  offset="0" style="stop-color:#311944"/>
				<stop  offset="1" style="stop-color:#893976"/>
			</linearGradient>
			<path style="fill:url(#SVGID_00000134233439504722911260000006430823217348194441_);" d="M1030.283,2531.69
				c39.861,82.094,60.493,145.819,71.315,185.01c6.602,23.909,12.323,48.717,11.496,80.56c-1.014,39.011-11.38,70.277-19.765,90.15
				c-11.915,25.364-23.25,55.16-31.631,89.185c-27.184,110.346-8.749,206.101,7.279,261.617
				c10.859,5.076,21.718,10.157,32.577,15.233c31.255-68.883,70.685-167.006,103.296-289.339
				c17.811-66.814,31.533-119.235,37.222-186.795c6.001-71.259,5.209-184.825-41.939-324.342
				C1143.516,2479.208,1086.899,2505.451,1030.283,2531.69z"/>
			
				<linearGradient id="SVGID_00000182497011874924004750000001120238848104422580_" gradientUnits="userSpaceOnUse" x1="3088.6621" y1="2700.8662" x2="3510.1616" y2="1800.2264" gradientTransform="matrix(0.993 0.1177 -0.1177 0.993 -2178.0205 -89.6996)">
				<stop  offset="0.494" style="stop-color:#EBEFF2"/>
				<stop  offset="1" style="stop-color:#FFFFFF"/>
			</linearGradient>
			<path style="fill:url(#SVGID_00000182497011874924004750000001120238848104422580_);" d="M1107.311,1916.94
				c70.228,18.141,123.409,35.372,144.532,74.692c22.311,41.532-20.814,67.827-39.038,153.381
				c-27.904,130.98,44.112,186.743,11.162,318.226c-11.101,44.301-29.253,77.773-41.475,97.542
				c-24.578,16.87-63.294,39.46-114.375,52.711c-74.335,19.282-108.752,1.638-206.406-0.863
				c-159.73-4.096-187.354,40.041-256.828,5.734c-70.214-34.673-116.335-116.458-98.197-148.271
				c10.864-19.05,38.924-4.268,82.654-25.137c56.359-26.895,50.875-70.437,97.537-103.53
				c67.022-47.534,122.877,10.71,180.264-30.698c58.05-41.888,73.869-154.139,56.394-223.192
				c-11.414-45.104-7.741-92.819-15.179-138.744c-0.619-3.815-0.856-9.839,2.029-16.409c11.028-25.126,58.764-26.169,94.821-26.621
				C1060.199,1905.073,1101.537,1915.447,1107.311,1916.94z"/>
			
				<linearGradient id="SVGID_00000133506962457641747830000001502290098866954641_" gradientUnits="userSpaceOnUse" x1="510.3724" y1="2462.5701" x2="1232.7903" y2="2462.5701">
				<stop  offset="0" style="stop-color:#AA80F9"/>
				<stop  offset="0.9964" style="stop-color:#6165D7"/>
			</linearGradient>
			<path style="opacity:0.3;fill:url(#SVGID_00000133506962457641747830000001502290098866954641_);" d="M617.387,2568.852
				c23.225-12.843,14.753-55.412,49.181-74.783c31.954-17.979,53.332,10.771,99.057,0.796
				c58.646-12.793,60.22-68.106,116.487-81.138c40.46-9.37,50.265,16.774,107.024,22.572
				c56.661,5.792,132.999-11.463,185.097-67.718c22.136-23.903,35.582-50.247,43.758-74.955
				c11.113,50.283,23.663,99.042,5.978,169.614c-11.101,44.301-29.253,77.773-41.475,97.542
				c-24.578,16.87-63.294,39.46-114.375,52.71c-74.334,19.283-108.752,1.64-206.406-0.862
				c-159.73-4.096-187.354,40.041-256.828,5.734c-44.874-22.159-79.805-63.531-94.512-98.833
				C569.416,2570.443,600.531,2578.172,617.387,2568.852z"/>
			
				<linearGradient id="SVGID_00000170259705333487857960000003328640189683445947_" gradientUnits="userSpaceOnUse" x1="3553.135" y1="1532.4644" x2="3477.0994" y2="1655.4634" gradientTransform="matrix(0.993 0.1177 -0.1177 0.993 -2178.0205 -89.6996)">
				<stop  offset="0" style="stop-color:#FFC444"/>
				<stop  offset="0.9964" style="stop-color:#F36F56"/>
			</linearGradient>
			<path style="fill:url(#SVGID_00000170259705333487857960000003328640189683445947_);" d="M1158.682,1797.056
				c0,0,16.577,38.483,15.672,64.446c-0.905,25.962-29.934,21.663-29.934,21.663l-0.257,16.405
				c-0.219,14.004,7.82,26.825,20.521,32.728l11.172,5.193c0,0-76.501,9.862-115.144-22.54l11.924-0.176
				c16.886-0.251,31.254-12.368,34.35-28.97l1.292-6.923C1108.278,1878.882,1101.921,1797.191,1158.682,1797.056z"/>
			<g>
				
					<linearGradient id="SVGID_00000168077789324673147620000002329819405160872353_" gradientUnits="userSpaceOnUse" x1="3836.3223" y1="1722.8965" x2="3683.0593" y2="1970.8221" gradientTransform="matrix(0.993 0.1177 -0.1177 0.993 -2178.0205 -89.6996)">
					<stop  offset="0" style="stop-color:#444B8C"/>
					<stop  offset="0.9964" style="stop-color:#26264F"/>
				</linearGradient>
				<path style="fill:url(#SVGID_00000168077789324673147620000002329819405160872353_);" d="M1235.333,2217.124l114.378-197.296
					c1.413-2.436,4.25-3.662,6.993-3.022l160.028,37.397c4.272,0.997,6.296,5.903,3.97,9.623l-132.725,212.228
					c-1.598,2.555-4.764,3.649-7.599,2.624l-140.648-50.794L1235.333,2217.124z"/>
				
					<linearGradient id="SVGID_00000052088482207713024430000006251206609384486544_" gradientUnits="userSpaceOnUse" x1="3859.7988" y1="1766.4794" x2="3727.4124" y2="2015.041" gradientTransform="matrix(0.9946 0.104 -0.104 0.9946 -2242.2766 -80.9972)">
					<stop  offset="0" style="stop-color:#FFC444"/>
					<stop  offset="0.9964" style="stop-color:#F36F56"/>
				</linearGradient>
				<path style="fill:url(#SVGID_00000052088482207713024430000006251206609384486544_);" d="M1263.473,2194.73l92.61-159.75
					c1.144-1.973,3.441-2.966,5.662-2.447l129.572,30.28c3.461,0.808,5.099,4.78,3.214,7.792l-107.466,171.84
					c-1.293,2.069-3.857,2.954-6.152,2.125l-113.882-41.127L1263.473,2194.73z"/>
				
					<linearGradient id="SVGID_00000060711747354284202720000015637297902698010038_" gradientUnits="userSpaceOnUse" x1="3820.6689" y1="1706.9932" x2="3857.1453" y2="1631.3387" gradientTransform="matrix(0.993 0.1177 -0.1177 0.993 -2178.0205 -89.6996)">
					<stop  offset="0" style="stop-color:#AA80F9"/>
					<stop  offset="0.9964" style="stop-color:#6165D7"/>
				</linearGradient>
				<path style="fill:url(#SVGID_00000060711747354284202720000015637297902698010038_);" d="M1383.414,2036.814l7.354-12.813
					c1.023-1.78,3.085-2.687,5.087-2.237l66.652,14.99c3.094,0.696,4.616,4.203,3.011,6.938l-8.177,13.932
					c-1.047,1.785-3.142,2.67-5.151,2.178l-65.827-16.109C1383.335,2042.952,1381.863,2039.516,1383.414,2036.814z"/>
				<path style="fill:#FFFFFF;" d="M1470.713,2091.75c-0.105-0.012-0.202-0.034-0.307-0.057l-117.337-27.691
					c-1.453-0.342-2.354-1.799-2.013-3.246c0.349-1.457,1.85-2.331,3.251-2.006l117.337,27.692c1.453,0.342,2.353,1.799,2.011,3.246
					C1473.337,2091.041,1472.054,2091.909,1470.713,2091.75z"/>
				<path style="fill:#FFFFFF;" d="M1463.355,2103.121c-0.11-0.013-0.224-0.037-0.333-0.06l-116.618-28.785
					c-1.452-0.353-2.335-1.819-1.977-3.274c0.353-1.447,1.801-2.326,3.269-1.972l116.617,28.785
					c1.452,0.353,2.336,1.818,1.976,3.274C1465.963,2102.42,1464.686,2103.278,1463.355,2103.121z"/>
				<path style="fill:#FFFFFF;" d="M1401.841,2115.778c-0.136-0.016-0.271-0.043-0.405-0.08l-63.403-17.494
					c-1.442-0.394-2.286-1.885-1.886-3.326c0.393-1.431,1.907-2.282,3.321-1.882l63.404,17.494c1.441,0.395,2.285,1.887,1.886,3.328
					C1404.401,2115.114,1403.14,2115.932,1401.841,2115.778z"/>
			</g>
			
				<linearGradient id="SVGID_00000168796655166361584630000016077650959308107682_" gradientUnits="userSpaceOnUse" x1="3868.7466" y1="1820.8751" x2="3831.9717" y2="1880.3641" gradientTransform="matrix(0.993 0.1177 -0.1177 0.993 -2178.0205 -89.6996)">
				<stop  offset="0" style="stop-color:#FFC444"/>
				<stop  offset="0.9964" style="stop-color:#F36F56"/>
			</linearGradient>
			<path style="fill:url(#SVGID_00000168796655166361584630000016077650959308107682_);" d="M1420.46,2224.113
				c0,0,28.304-15.211,32.711-27.56c4.406-12.348,6.125-36.27,6.125-36.27l-18.914,31.975c0,0-7.22-2.911-9.269-14.314
				c-2.05-11.403-8.529-1.832-7.215,6.758C1425.212,2193.292,1420.46,2224.113,1420.46,2224.113z"/>
			
				<linearGradient id="SVGID_00000016073697846841418100000000635526628974425786_" gradientUnits="userSpaceOnUse" x1="3277.8337" y1="2789.3804" x2="3699.3262" y2="1888.7557" gradientTransform="matrix(0.993 0.1177 -0.1177 0.993 -2178.0205 -89.6996)">
				<stop  offset="0.494" style="stop-color:#EBEFF2"/>
				<stop  offset="1" style="stop-color:#FFFFFF"/>
			</linearGradient>
			<path style="fill:url(#SVGID_00000016073697846841418100000000635526628974425786_);" d="M1240.51,1977.819
				c13.069,9.961,32.555,27.084,48.64,53.11c45.761,74.041,17.501,144.872,58.582,175.263c11.747,8.694,33.097,16.985,74.241,7.1
				l14.363,9.679c0,0,8.699,96.419-106.394,87.959c-115.093-8.455-157.345-157.052-157.345-157.052L1240.51,1977.819z"/>
			
				<linearGradient id="SVGID_00000004540730969664493440000012253480800046886058_" gradientUnits="userSpaceOnUse" x1="725.1448" y1="2348.9875" x2="891.3054" y2="1936.266">
				<stop  offset="0" style="stop-color:#444B8C"/>
				<stop  offset="0.9964" style="stop-color:#26264F"/>
			</linearGradient>
			<path style="fill:url(#SVGID_00000004540730969664493440000012253480800046886058_);" d="M1143.899,1832.731
				c-3.858-0.643-6.66-5.837-9.441-4.593c-2.919,1.3-3.203,8.51-1.196,13.753c1.648,4.297,4.7,6.903,6.416,8.142
				c-3.344,3.903-7.7,10.039-9.991,18.355c-5.069,18.391,3.617,34.24,7.016,43.374c15.332,41.181-18.825,101.447-53.236,130.457
				c-27.964,23.584-39.161,12.241-56.324,31.973c-33.41,38.402,4.299,86.784-15.787,140.534
				c-30.544,81.729-164.752,95.671-170.31,96.183c-2.19,0.202-3.659,0.32-5.935,0.491c-60.06,4.504-151.091,11.33-210.333-42.57
				c-44.324-40.324-60.784-105.484-52.573-160.991c2.159-14.601,11.225-69.954,60.398-111.669
				c7.804-6.619,54.013-45.727,111.722-41.464c30.565,2.256,35.832,13.529,59.741,8.812c32.733-6.46,54.842-33.901,68.557-50.921
				c25.227-31.311,16.68-39.152,34.203-54.128c34.337-29.339,69.431-1.155,105.614-26.561
				c35.666-25.041,18.667-64.434,52.865-85.833c35.279-22.069,98.107-8.135,109.203,22.55
				C1184.045,1794.988,1155.728,1834.702,1143.899,1832.731z"/>
		</g>
	</g>
</g>
</svg>
